<?xml version="1.0" encoding="UTF-8"?><svg id="Notebook" xmlns="http://www.w3.org/2000/svg" viewBox="0 0 512 512"><defs><style>.cls-1{fill:#2a1d13;stroke:#2a1d13;stroke-miterlimit:10;}</style></defs><path class="cls-1" d="M433,63.85c9.77,0,17.72,7.95,17.72,17.72v365.37c0,9.77-7.94,17.72-17.71,17.72h-.29s-291.74-4.56-291.74-4.56c-5.06-.08-9.68-2.21-13.02-6.01-3.34-3.8-4.87-8.66-4.31-13.68l2.45-21.77c13.99-6.07,23.8-20.12,23.8-35.96,0-12.79-6.2-24.46-16.2-31.69l2.49-22.2c8.59-7.37,13.7-18.19,13.7-29.7,0-8.42-2.76-16.59-7.75-23.29l5.23-46.57c1.67-4.41,2.51-9.02,2.51-13.73,0-1.79-.12-3.58-.37-5.35l14.67-130.54c1.01-8.97,8.58-15.74,17.61-15.74h251.19M433,49.72h-251.19c-16.21,0-29.83,12.18-31.64,28.29l-14.89,132.5c.33,1.61.5,3.27.5,4.97h0c0,3.63-.8,7.07-2.21,10.2l-6.16,54.8c5.11,4.59,8.36,11.22,8.36,18.6,0,9.37-5.23,17.58-12.91,21.86l-4.27,37.99c9.95,3.31,17.18,12.72,17.18,23.74,0,12.96-9.99,23.69-22.65,24.9l-3.51,31.25c-2.1,18.68,12.35,35.1,31.15,35.39l291.74,4.55c.17,0,.34,0,.51,0,17.55,0,31.83-14.23,31.83-31.84V81.56c0-17.59-14.26-31.84-31.84-31.84h0Z"/><path class="cls-1" d="M393.38,422.03c18.04-3.17,31.22-18.84,31.22-37.16V38.46c0-23.46-21.18-41.25-44.3-37.16L121.48,46.84c-14.22,2.52-25.43,12.81-29.52,26.05-1.11,3.54-1.69,7.27-1.69,11.14v22.83h20.49c13.76,0,25.03,11.26,25.03,25.03s-11.26,25.03-25.03,25.03h-20.49v33.54h20.49c13.76,0,25.03,11.26,25.03,25.03h0c0,13.76-11.26,25.03-25.03,25.03h-20.49v33.54h20.49c13.76,0,25.03,11.26,25.03,25.03s-11.26,25.03-25.03,25.03h-20.49v33.54h20.49c13.76,0,25.03,11.26,25.03,25.03s-11.26,25.03-25.03,25.03h-20.49v57.34c0,9.91,7.51,18.19,17.36,19.18l295.76,26.97c11.36,1.14,21.21-7.79,21.21-19.21v-2.89c0-10.53-8.47-10.71-18.99-10.87l-268.85-7.02c-3.73-.06-7.17-1.17-10.07-3.05,2.59.09,5.2-.09,7.88-.55l258.82-45.56Z"/><path class="cls-1" d="M112.07,124.52c4,0,7.37,3.38,7.37,7.37s-3.38,7.37-7.37,7.37h-39.88c-4,0-7.37-3.38-7.37-7.37s3.38-7.37,7.37-7.37h39.88M112.07,106.86h-39.88c-13.76,0-25.03,11.26-25.03,25.03s11.26,25.03,25.03,25.03h39.88c13.76,0,25.03-11.26,25.03-25.03s-11.26-25.03-25.03-25.03h0Z"/><path class="cls-1" d="M112.07,208.11c4,0,7.37,3.38,7.37,7.37s-3.38,7.37-7.37,7.37h-39.88c-4,0-7.37-3.38-7.37-7.37s3.38-7.37,7.37-7.37h39.88M112.07,190.46h-39.88c-13.76,0-25.03,11.26-25.03,25.03s11.26,25.03,25.03,25.03h39.88c13.76,0,25.03-11.26,25.03-25.03s-11.26-25.03-25.03-25.03h0Z"/><path class="cls-1" d="M112.07,291.71c4,0,7.37,3.38,7.37,7.37s-3.38,7.37-7.37,7.37h-39.88c-4,0-7.37-3.38-7.37-7.37s3.38-7.37,7.37-7.37h39.88M112.07,274.05h-39.88c-13.76,0-25.03,11.26-25.03,25.03h0c0,13.76,11.26,25.03,25.03,25.03h39.88c13.76,0,25.03-11.26,25.03-25.03h0c0-13.76-11.26-25.03-25.03-25.03h0Z"/><path class="cls-1" d="M112.07,375.3c4,0,7.37,3.38,7.37,7.37s-3.38,7.37-7.37,7.37h-39.88c-4,0-7.37-3.38-7.37-7.37s3.38-7.37,7.37-7.37h39.88M112.07,357.64h-39.88c-13.76,0-25.03,11.26-25.03,25.03s11.26,25.03,25.03,25.03h39.88c13.76,0,25.03-11.26,25.03-25.03s-11.26-25.03-25.03-25.03h0Z"/><rect class="cls-1" x="90.26" y="101.75" width="41.8" height="22.77"/><rect class="cls-1" x="90.26" y="139.26" width="41.8" height="52.75"/><rect class="cls-1" x="90.26" y="229.62" width="41.8" height="52.75"/><rect class="cls-1" x="90.26" y="315.82" width="41.8" height="52.75"/><rect class="cls-1" x="90.26" y="398.92" width="41.8" height="52.75"/><rect class="cls-1" x="123.54" y="356.29" width="41.8" height="52.75"/><rect class="cls-1" x="123.54" y="272.7" width="41.8" height="52.75"/><rect class="cls-1" x="119.44" y="196.48" width="41.8" height="52.75"/><rect class="cls-1" x="119.44" y="105.51" width="41.8" height="52.75"/></svg>