<?xml version="1.0" encoding="UTF-8"?><svg id="Notes" xmlns="http://www.w3.org/2000/svg" viewBox="0 0 512 512"><defs><style>.cls-1{fill:#2a1d13;stroke:#2a1d13;stroke-miterlimit:10;}</style></defs><path class="cls-1" d="M396.33,61.21h-114.91c-.11.34-.19.65-.34.95.15.23.3.49.42.72,3.8,7.45,7.99,16.27,11.64,24.03l3.23,6.81c3.27,7.22,5.02,11.86,2.59,16.16l-.57.99-2.55,2.43-2.51.46c-.49.08-1.03.11-1.56.11-5.63,0-11.64-4.11-17.99-8.4-2.24-1.52-4.33-2.93-5.78-3.73l-.53-.3c-1.64-1.06-3.31-2.09-4.94-3.16-3.76-2.36-7.68-4.83-11.29-7.38-17.87,6.12-38.03,1.48-51.37-12.28-4.98-5.13-8.59-11.1-10.88-17.42h-73.31c-16.24,0-29.43,13.19-29.43,29.43v390.56c0,16.27,13.19,29.47,29.43,29.47h186.7c11.83-58.71,66.47-96.85,123.39-120.5V90.64c0-16.24-13.16-29.43-29.43-29.43ZM327.28,255.63h-168.53c-8.63,0-15.59-6.96-15.59-15.59,0-4.3,1.75-8.18,4.56-10.99,2.81-2.81,6.73-4.56,11.03-4.56h168.53c8.59,0,15.59,6.96,15.59,15.55s-7,15.59-15.59,15.59ZM353.29,194.79h-194.54c-8.63,0-15.59-6.96-15.59-15.59,0-4.3,1.75-8.18,4.56-10.99,2.81-2.81,6.73-4.56,11.03-4.56h194.54c8.59,0,15.55,6.96,15.55,15.55s-6.96,15.59-15.55,15.59Z"/><path class="cls-1" d="M425.76,414.73v66.47c0,16.27-13.16,29.47-29.43,29.47h-70.99c10.53-45.1,54.26-75.78,100.42-95.94Z"/><path class="cls-1" d="M205.29,72.01c-16.01-16.5-15.63-42.85.87-58.9,16.5-16.01,42.89-15.67,58.94.87,12.66,13,15.06,32.21,7.38,47.57.87,1.14,1.67,2.47,2.43,3.8,4.64,9.2,10.23,21.22,14.56,30.31,2.17,4.87,3.46,8.14,2.85,9.16l-.11.11c-4.56.65-14.94-8.14-20.65-11.18-5.63-3.65-11.29-7.03-16.35-10.69-.91-.72-1.83-1.41-2.62-2.21-15.59,7.15-34.64,4.18-47.3-8.86Z"/></svg>