<?xml version="1.0" encoding="UTF-8"?><svg id="Scroll" xmlns="http://www.w3.org/2000/svg" viewBox="0 0 512 512"><defs><style>.cls-1{fill:#2a1d13;stroke:#2a1d13;stroke-miterlimit:10;}</style></defs><path class="cls-1" d="M346.81,82.66s0,.03,0,.05c0,.34,0,.69-.03,1.03-.21,12.2-1.54,24.41-3.84,36.41l-12.44,65.1c-13.58,70.76-14.3,143.4-2.19,214.44l11.69,68.43c1.54,9.02-2.61,18.07-10.46,22.76l-2.37,1.41c-43.88,26.36-98.73,26.29-142.51-.17l-2.5-1.51c-7.58-4.56-11.72-13.2-10.56-21.94l12.14-90.75c7.4-55.5,7.03-111.76-1.13-167.16l-16.42-111.76c-.79-5.45-1.17-11-1.06-16.49.03-2.47.1-4.56.21-6.27,0-.31,0-.58.03-.86,0-.34.03-.69.07-1.03,0-.14,0-.31.03-.45.04-.54.08-1.02.13-1.46.44-5.72,1.54-11.43,3.44-17.05,4.22,19.58,13.51,37.13,27.94,49.85,29.65,27.49,83.44,27.87,96.68-14.67,1.34-4.39,1.95-9.19,1.82-13.75-.31-16.35-16.35-31.03-33.01-29.76-23.04,2.67-31.09,35.07-7.03,44.43,12.34,4.94,25.47-1.78,30.68-15.98,4.77,29.45-29.28,44.09-53.21,31.33-46.14-24.65-27.87-91.53,18.92-103.94,52.86-13.21,97.38,30.13,95,79.76Z"/></svg>