<?xml version="1.0" encoding="UTF-8"?><svg id="Bottle" xmlns="http://www.w3.org/2000/svg" viewBox="0 0 512 512"><defs><style>.cls-1{fill:#2a1d13;stroke:#2a1d13;stroke-miterlimit:10;}</style></defs><path class="cls-1" d="M279.74,56.52c0-6.21-5.03-11.25-11.25-11.25h-39.63c-6.21,0-11.25,5.03-11.25,11.25v54.29l62.12-17.06v-37.24Z"/><path class="cls-1" d="M324.61,217.23l-14.73-16.05c-15.28-16.64-25.17-37.34-28.68-59.39l-69.79,19.16c-5.08,14.79-13.17,28.51-23.92,40.23l-14.73,16.05c-9.71,10.58-15.1,24.42-15.1,38.79v197.23c0,31.94,25.89,57.84,57.84,57.84h66.4c31.94,0,57.84-25.89,57.84-57.84v-197.23c0-14.36-5.39-28.21-15.1-38.79Z"/><path class="cls-1" d="M171.83,155.82c-16.06,0-32.08-3.64-44.73-15.32-14.23-13.15-24.17-36.22-15.67-54.87,4.17-9.14,11.21-15.65,20.35-18.8,10.99-3.8,24.22-2.4,36.28,3.85,12.65,6.55,19.2,17.75,24.97,27.62,5.61,9.6,10.45,17.88,19.83,21.48,4.85,1.87,9.64,1.28,22.79-.67,11.9-1.77,23.45-5.62,34.34-11.45,1.8-.96,4.26-2.28,7.67-1.19,2.14.69,3.92,2.22,4.91,4.24h0c1.12,2.28,1.14,4.97.04,7.27-2.56,5.35-31.72,23.68-66.2,31.41-12.72,2.85-28.67,6.43-44.59,6.43ZM144.68,81.34c-2.66,0-5.19.39-7.48,1.18-4.81,1.66-8.39,5.03-10.66,10-4.99,10.94,2.09,26.79,11.83,35.79,16.87,15.59,45.56,11.13,67.28,6.47-13.97-5.88-20.85-17.67-26.95-28.1-5.09-8.7-9.89-16.92-18.27-21.26-5.19-2.68-10.7-4.08-15.75-4.08Z"/><rect class="cls-1" x="222.81" y=".92" width="51.72" height="39" rx="3.33" ry="3.33"/></svg>