<?xml version="1.0" encoding="UTF-8"?><svg id="Candle" xmlns="http://www.w3.org/2000/svg" viewBox="0 0 512 512"><defs><style>.cls-1{stroke-linejoin:round;stroke-width:3px;}.cls-1,.cls-2{fill:#2a1d13;stroke:#2a1d13;}.cls-2{stroke-miterlimit:10;}</style></defs><path class="cls-2" d="M201.19,411.59v-31.78h73.99v31.78c0,17.47-10.75,31.64-24.06,31.64h-25.87c-13.27,0-24.06-14.16-24.06-31.64Z"/><path class="cls-2" d="M284.07,387.64v25.87c0,22.35-14.77,40.53-32.95,40.53h-25.87c-18.19,0-32.95-18.19-32.95-40.53v-25.87c-68.51,7.58-118.61,31.74-118.61,60.39,0,34.77,73.67,62.92,164.52,62.92s164.48-28.15,164.48-62.92c0-28.65-50.11-52.81-118.61-60.39ZM238.2,494.79c-80.89,0-146.44-18.83-146.44-42.03,0-2.6.85-5.16,2.46-7.62,11.57,19.86,71.78,35.02,144.38,35.02s131.46-14.8,143.99-34.38c1.32,2.28,2.06,4.59,2.06,6.97,0,23.2-65.59,42.03-146.44,42.03Z"/><path class="cls-2" d="M275.18,318.84v-108.4c0-24.77-10.83-47.32-27.84-57.95l-36.97-23.11c-4.27-2.67-9.19,1.43-9.19,7.64v181.83h73.99Z"/><path class="cls-2" d="M290.74,379.8h-105.12c-6.1,0-11.48-4.34-13.09-10.56l-8.34-32.14c-1.17-4.52-.21-9.39,2.59-13,2.58-3.34,6.41-5.25,10.5-5.25h121.81c4.09,0,7.92,1.91,10.5,5.25,2.8,3.62,3.77,8.48,2.59,13.01l-8.34,32.13c-1.61,6.22-7,10.56-13.09,10.56ZM189.04,362.01h98.29l6.59-25.37h-111.46l6.59,25.37Z"/><path class="cls-2" d="M270.62,68.06c8.02,18.98.13,46.85-17.97,57.13-11.12,6.82-25.67,2.48-34.72-6.5-27.88-26.97-12.24-62.44,3.91-92.73,3.45-3.95,12.1-31.35,17.92-24.32,10.93,19.8,21.63,44.81,30.63,65.79l.23.63Z"/><path class="cls-1" d="M307.28,413.41c11.68-8.37,23.24-16.96,34.13-26.34,9.12-7.86,17.61-16.36,26.29-24.69,13.7-13.15,32.48-29.02,52.16-25.58,8.21,1.43,14.22,5.03,19.61,11.26,4.43,5.12,6.96,12.31,6.85,19.09-.04,2.77-.84,6.84-1.96,9.34-1.85,4.12-4.15,7-7.39,9.97-8.13,7.45-18.53,11.5-29.13,13.95-12.61,2.91-25.59,3.5-38.46,4.27-16.46.99-32.96.99-49.44.96-11.45-.02-11.47,17.78,0,17.79,29.32.04,59.71.61,88.63-5.02,22.83-4.45,49.64-17.72,54.59-42.84,4.03-20.48-6.81-41.91-25.41-51.34-23.68-12-49.19-2.31-68.62,13.12-10.77,8.55-20.07,18.73-30.16,28.04-12.83,11.85-26.49,22.49-40.68,32.66-3.9,2.8-5.78,7.75-3.19,12.17,2.25,3.85,8.25,6.01,12.17,3.19h0Z"/></svg>