<?xml version="1.0" encoding="UTF-8"?><svg id="Keyboard" xmlns="http://www.w3.org/2000/svg" viewBox="0 0 512 512"><defs><style>.cls-1{fill:#2a1d13;stroke:#2a1d13;stroke-miterlimit:10;}</style></defs><path class="cls-1" d="M323.96,183.87h-135.93v-12c0-37.48,30.49-67.96,67.96-67.96s67.96,30.49,67.96,67.96v12ZM213.7,159.87h84.6c-5.24-18.43-22.22-31.96-42.3-31.96s-37.06,13.54-42.3,31.96Z"/><path class="cls-1" d="M477.23,161.01H34.77c-19.2,0-34.77,15.57-34.77,34.77v165.54c0,19.2,15.57,34.77,34.77,34.77h442.45c19.2,0,34.77-15.57,34.77-34.77v-165.54c0-19.2-15.57-34.77-34.77-34.77ZM233.54,202.67c0-5.05,4.09-9.15,9.15-9.15h26.62c5.05,0,9.15,4.09,9.15,9.15v26.62c0,5.05-4.09,9.15-9.15,9.15h-26.62c-5.05,0-9.15-4.09-9.15-9.15v-26.62ZM233.54,266.06c0-5.05,4.09-9.15,9.15-9.15h26.62c5.05,0,9.15,4.09,9.15,9.15v26.62c0,5.05-4.09,9.15-9.15,9.15h-26.62c-5.05,0-9.15-4.09-9.15-9.15v-26.62ZM171.96,202.67c0-5.05,4.09-9.15,9.15-9.15h26.62c5.05,0,9.15,4.09,9.15,9.15v26.62c0,5.05-4.09,9.15-9.15,9.15h-26.62c-5.05,0-9.15-4.09-9.15-9.15v-26.62ZM171.96,266.06c0-5.05,4.09-9.15,9.15-9.15h26.62c5.05,0,9.15,4.09,9.15,9.15v26.62c0,5.05-4.09,9.15-9.15,9.15h-26.62c-5.05,0-9.15-4.09-9.15-9.15v-26.62ZM110.39,202.12c0-5.05,4.09-9.15,9.15-9.15h26.62c5.05,0,9.15,4.09,9.15,9.15v26.62c0,5.05-4.09,9.15-9.15,9.15h-26.62c-5.05,0-9.15-4.09-9.15-9.15v-26.62ZM110.39,265.51c0-5.05,4.09-9.15,9.15-9.15h26.62c5.05,0,9.15,4.09,9.15,9.15v26.62c0,5.05-4.09,9.15-9.15,9.15h-26.62c-5.05,0-9.15-4.09-9.15-9.15v-26.62ZM93.72,354.98c0,5.05-4.09,9.15-9.15,9.15h-26.62c-5.05,0-9.15-4.09-9.15-9.15v-26.62c0-5.05,4.09-9.15,9.15-9.15h26.62c5.05,0,9.15,4.09,9.15,9.15v26.62ZM93.72,292.68c0,5.05-4.09,9.15-9.15,9.15h-26.62c-5.05,0-9.15-4.09-9.15-9.15v-26.62c0-5.05,4.09-9.15,9.15-9.15h26.62c5.05,0,9.15,4.09,9.15,9.15v26.62ZM93.72,229.29c0,5.05-4.09,9.15-9.15,9.15h-26.62c-5.05,0-9.15-4.09-9.15-9.15v-26.62c0-5.05,4.09-9.15,9.15-9.15h26.62c5.05,0,9.15,4.09,9.15,9.15v26.62ZM340.04,355.75c0,4.63-3.75,8.38-8.38,8.38H118.76c-4.63,0-8.38-3.75-8.38-8.38v-28.16c0-4.63,3.75-8.38,8.38-8.38h212.9c4.63,0,8.38,3.75,8.38,8.38v28.16ZM340.04,292.68c0,5.05-4.09,9.15-9.15,9.15h-26.62c-5.05,0-9.15-4.09-9.15-9.15v-26.62c0-5.05,4.09-9.15,9.15-9.15h26.62c5.05,0,9.15,4.09,9.15,9.15v26.62ZM340.04,229.29c0,5.05-4.09,9.15-9.15,9.15h-26.62c-5.05,0-9.15-4.09-9.15-9.15v-26.62c0-5.05,4.09-9.15,9.15-9.15h26.62c5.05,0,9.15,4.09,9.15,9.15v26.62ZM401.61,354.98c0,5.05-4.09,9.15-9.15,9.15h-26.62c-5.05,0-9.15-4.09-9.15-9.15v-26.62c0-5.05,4.09-9.15,9.15-9.15h26.62c5.05,0,9.15,4.09,9.15,9.15v26.62ZM401.61,292.68c0,5.05-4.09,9.15-9.15,9.15h-26.62c-5.05,0-9.15-4.09-9.15-9.15v-26.62c0-5.05,4.09-9.15,9.15-9.15h26.62c5.05,0,9.15,4.09,9.15,9.15v26.62ZM401.61,229.29c0,5.05-4.09,9.15-9.15,9.15h-26.62c-5.05,0-9.15-4.09-9.15-9.15v-26.62c0-5.05,4.09-9.15,9.15-9.15h26.62c5.05,0,9.15,4.09,9.15,9.15v26.62ZM463.19,354.98c0,5.05-4.09,9.15-9.15,9.15h-26.62c-5.05,0-9.15-4.09-9.15-9.15v-26.62c0-5.05,4.09-9.15,9.15-9.15h26.62c5.05,0,9.15,4.09,9.15,9.15v26.62ZM463.19,292.68c0,5.05-4.09,9.15-9.15,9.15h-26.62c-5.05,0-9.15-4.09-9.15-9.15v-26.62c0-5.05,4.09-9.15,9.15-9.15h26.62c5.05,0,9.15,4.09,9.15,9.15v26.62ZM463.19,229.29c0,5.05-4.09,9.15-9.15,9.15h-26.62c-5.05,0-9.15-4.09-9.15-9.15v-26.62c0-5.05,4.09-9.15,9.15-9.15h26.62c5.05,0,9.15,4.09,9.15,9.15v26.62Z"/></svg>